<?xml version="1.0" encoding="UTF-8" standalone="no"?>
<!DOCTYPE svg PUBLIC "-//W3C//DTD SVG 1.1//EN" "http://www.w3.org/Graphics/SVG/1.1/DTD/svg11.dtd">
<svg xmlns="http://www.w3.org/2000/svg" version="1.1" viewBox="0 0 1536 359">
<g stroke-width="2.00" fill="none" stroke-linecap="butt">
<path stroke="#8f853f" vector-effect="non-scaling-stroke" d="
  M 63.50 301.04
  L 63.29 306.50"
/>
<path stroke="#116942" vector-effect="non-scaling-stroke" d="
  M 162.54 301.00
  L 162.29 306.75"
/>
<path stroke="#116942" vector-effect="non-scaling-stroke" d="
  M 118.60 306.45
  Q 119.07 303.65 118.39 301.08"
/>
<path stroke="#116ead" vector-effect="non-scaling-stroke" d="
  M 261.54 301.00
  L 261.29 306.51"
/>
<path stroke="#116ead" vector-effect="non-scaling-stroke" d="
  M 217.71 306.50
  L 217.71 301.00"
/>
</g>
<path fill="#1f497d" d="
  M 1066.19 256.31
  C 988.49 206.49 995.28 98.41 1075.70 55.81
  C 1129.99 27.06 1193.44 33.76 1240.76 72.93
  A 0.99 0.99 0.0 0 1 1240.89 74.34
  L 1203.62 118.38
  A 0.99 0.99 0.0 0 1 1202.22 118.50
  Q 1187.84 106.54 1169.64 100.92
  C 1141.55 92.25 1109.26 101.41 1091.34 124.73
  C 1069.80 152.77 1078.35 189.28 1106.70 208.56
  C 1137.59 229.57 1175.38 222.79 1202.44 199.14
  A 0.99 0.99 0.0 0 1 1203.87 199.26
  L 1240.96 245.05
  A 1.00 1.00 0.0 0 1 1240.81 246.46
  Q 1188.96 288.05 1122.78 277.82
  Q 1092.39 273.11 1066.19 256.31
  Z"
/>
<path fill="#1f497d" d="
  M 107.31 221.48
  C 115.24 221.85 126.89 220.51 133.07 215.62
  C 147.29 204.34 124.06 192.16 116.19 188.36
  C 81.74 171.76 31.99 159.80 29.35 112.29
  C 27.47 78.62 54.66 53.71 85.25 44.94
  C 121.55 34.53 176.05 40.55 195.33 79.32
  A 1.00 1.00 0.0 0 1 195.10 80.51
  L 157.75 113.85
  A 1.00 1.00 0.0 0 1 156.28 113.71
  C 149.58 104.79 139.11 99.99 128.41 98.03
  C 118.93 96.29 104.23 96.31 97.93 104.78
  C 90.71 114.50 102.27 120.89 109.84 123.69
  C 138.73 134.39 162.76 142.02 183.61 160.35
  C 203.17 177.54 210.26 205.42 200.21 229.70
  C 190.75 252.52 167.95 267.45 143.97 273.66
  C 102.90 284.31 43.31 276.29 19.44 236.29
  A 1.01 1.00 -36.5 0 1 19.63 235.04
  L 58.98 199.27
  A 1.00 1.00 0.0 0 1 60.43 199.39
  C 71.83 213.63 89.24 220.65 107.31 221.48
  Z"
/>
<path fill="#1f497d" d="
  M 1255.23 273.55
  C 1293.84 196.30 1331.90 118.74 1370.21 41.33
  A 0.99 0.99 0.0 0 1 1371.10 40.77
  C 1381.08 40.77 1392.33 39.81 1402.05 40.84
  A 1.01 0.99 -9.7 0 1 1402.84 41.39
  L 1517.87 273.56
  A 1.00 1.00 0.0 0 1 1516.98 275.00
  L 1445.87 275.00
  A 1.00 1.00 0.0 0 1 1444.96 274.42
  L 1432.98 248.58
  A 1.00 1.00 0.0 0 0 1432.07 248.00
  C 1401.77 248.00 1371.37 247.83 1340.92 248.28
  A 1.02 1.00 -77.5 0 0 1340.03 248.86
  L 1328.04 274.42
  A 1.00 0.99 -77.3 0 1 1327.14 275.00
  L 1256.12 275.00
  A 1.00 1.00 0.0 0 1 1255.23 273.55
  Z
  M 1361.88 201.92
  A 0.38 0.38 0.0 0 0 1362.22 202.46
  L 1410.76 202.55
  A 0.38 0.38 0.0 0 0 1411.10 202.01
  L 1386.92 150.04
  A 0.38 0.38 0.0 0 0 1386.24 150.04
  L 1361.88 201.92
  Z"
/>
<path fill="#1f497d" d="
  M 208.07 273.56
  C 246.48 195.96 285.00 118.66 323.04 41.31
  A 0.99 0.99 0.0 0 1 323.93 40.75
  L 354.72 40.75
  A 1.01 1.00 76.6 0 1 355.62 41.31
  L 470.72 273.56
  A 1.00 1.00 0.0 0 1 469.83 275.00
  L 398.71 275.00
  A 1.00 1.00 0.0 0 1 397.80 274.42
  L 385.81 248.60
  A 1.00 1.00 0.0 0 0 384.90 248.02
  L 293.90 247.99
  A 1.00 1.00 0.0 0 0 292.99 248.57
  L 280.89 274.42
  A 1.00 1.00 0.0 0 1 279.98 275.00
  L 208.97 275.00
  A 1.00 1.00 0.0 0 1 208.07 273.56
  Z
  M 314.73 201.95
  A 0.39 0.39 0.0 0 0 315.09 202.50
  L 363.61 202.50
  A 0.39 0.39 0.0 0 0 363.97 201.95
  L 339.70 150.06
  A 0.39 0.39 0.0 0 0 339.00 150.06
  L 314.73 201.95
  Z"
/>
<path fill="#1f497d" d="
  M 579.33 275.00
  L 513.41 275.00
  A 0.66 0.66 0.0 0 1 512.75 274.34
  L 512.75 102.41
  A 0.66 0.66 0.0 0 0 512.09 101.75
  L 453.66 101.75
  A 0.66 0.66 0.0 0 1 453.00 101.09
  L 453.00 44.41
  A 0.66 0.66 0.0 0 1 453.66 43.75
  L 638.84 43.75
  A 0.66 0.66 0.0 0 1 639.50 44.41
  L 639.50 101.09
  A 0.66 0.66 0.0 0 1 638.84 101.75
  L 580.65 101.75
  A 0.66 0.66 0.0 0 0 579.99 102.41
  L 579.99 274.34
  A 0.66 0.66 0.0 0 1 579.33 275.00
  Z"
/>
<path fill="#1f497d" d="
  M 803.53 274.55
  C 797.83 265.98 738.83 176.64 738.16 176.76
  A 0.26 0.25 -6.5 0 0 737.95 177.02
  Q 738.29 219.76 738.03 262.50
  Q 737.99 268.25 737.95 274.00
  A 1.00 0.99 -90.0 0 1 736.96 275.00
  L 672.36 275.01
  A 1.00 1.00 0.0 0 1 671.36 274.01
  Q 671.32 260.08 671.27 246.44
  C 671.07 189.91 671.59 133.28 670.77 76.76
  Q 670.54 60.76 670.97 44.75
  A 1.00 1.00 0.0 0 1 671.97 43.78
  Q 715.91 43.70 759.72 43.78
  Q 773.81 43.80 779.70 44.43
  C 804.61 47.11 830.60 59.09 845.37 79.86
  C 859.30 99.44 862.38 123.92 852.38 146.03
  Q 841.49 170.08 816.53 181.79
  A 1.00 1.00 0.0 0 0 816.14 183.28
  L 881.15 273.41
  Q 882.30 275.00 880.34 275.00
  L 804.37 275.00
  A 1.01 1.01 0.0 0 1 803.53 274.55
  Z
  M 773.86 143.71
  C 796.41 136.56 795.97 108.39 774.07 101.21
  Q 769.71 99.78 757.74 99.77
  Q 748.24 99.76 738.76 99.68
  A 1.00 1.00 0.0 0 0 737.75 100.68
  L 737.75 143.96
  A 1.00 1.00 0.0 0 0 738.74 144.96
  Q 750.58 145.07 762.33 144.97
  Q 770.07 144.91 773.86 143.71
  Z"
/>
<rect fill="#1f497d" x="908.77" y="43.74" width="66.98" height="231.26" rx="0.76"/>
<path fill="#ffc000" d="
  M 63.50 301.04
  L 63.29 306.50
  Q 59.65 318.95 46.92 321.65
  C 34.84 324.20 20.34 317.81 19.74 304.12
  C 18.67 279.98 57.77 276.72 63.50 301.04
  Z"
/>
<path fill="#028907" d="
  M 162.54 301.00
  L 162.29 306.75
  C 156.47 327.79 124.64 327.21 118.60 306.45
  Q 119.07 303.65 118.39 301.08
  C 123.94 278.65 157.26 278.53 162.54 301.00
  Z"
/>
<path fill="#0392dd" d="
  M 261.54 301.00
  L 261.29 306.51
  C 255.45 327.76 223.89 327.42 217.71 306.50
  L 217.71 301.00
  C 222.52 278.58 256.50 278.59 261.54 301.00
  Z"
/>
<path fill="#1f497d" d="
  M 217.71 301.00
  L 217.71 306.50
  L 162.29 306.75
  L 162.54 301.00
  L 217.71 301.00
  Z"
/>
<path fill="#1f497d" d="
  M 261.29 306.51
  L 261.54 301.00
  Q 887.60 301.00 1513.66 301.00
  C 1516.94 301.00 1519.62 303.32 1516.30 306.25
  A 1.03 1.02 -65.1 0 1 1515.63 306.50
  L 261.29 306.51
  Z"
/>
<path fill="#1f497d" d="
  M 63.50 301.04
  L 118.39 301.08
  Q 119.07 303.65 118.60 306.45
  L 63.29 306.50
  L 63.50 301.04
  Z"
/>
</svg>
