<?xml version="1.0" encoding="UTF-8"?>
<svg id="Capa_2" data-name="Capa 2" xmlns="http://www.w3.org/2000/svg" viewBox="0 0 284 284">
  <defs>
    <style>
      .cls-1 {
        fill: #1f497d;
      }

      .cls-2 {
        fill: #fdfdfd;
      }
    </style>
  </defs>
  <g id="Capa_1-2" data-name="Capa 1">
    <path class="cls-1" d="M.05,153.9v-23.24c1.13-2.34,.9-4.92,1.25-7.39,4.4-30.66,16.84-57.61,38.81-79.45C79.11,5.05,126.03-8.26,179.05,5.88c73.5,19.59,117.46,93.55,100.98,167.11-13.2,58.92-62.24,103.17-121.77,109.98-2,.23-4.17-.22-6.03,.98h-22.14c-.27-.91-1.06-.51-1.62-.6-5.19-.79-10.44-1.28-15.56-2.35C53.77,268.61,9.68,220.5,1.49,162.38c-.4-2.83-.22-5.78-1.44-8.48Zm143.87,5.59c-11.04,0-19.98-.06-28.92,.01-23.6,.2-42.69,15.74-47.14,38.37-1.38,7.01-1.64,13.95,2.74,20.2,2.97,4.24,7.22,7.11,11.38,9.95,22.36,15.3,46.99,21.35,73.91,17.79,20.17-2.67,37.89-10.85,53.41-23.86,4.86-4.07,7.12-9.54,7.07-15.87-.18-23.52-18.28-43.63-41.65-46.12-10.94-1.17-21.93-.15-30.8-.47Zm-49.07-70.03c.06,25.97,20.29,46.59,46.09,47.23,25.71,.64,47.29-20.13,47.59-46.49,.3-26.49-21-46.79-46.29-47.21-25.56-.42-46.71,20.14-47.39,46.46Z"/>
    <path class="cls-2" d="M152.24,283.95c1.86-1.2,4.03-.75,6.03-.98,59.53-6.81,108.58-51.06,121.77-109.98C296.51,99.43,252.55,25.47,179.05,5.88c-53.03-14.13-99.94-.83-138.94,37.94C18.15,65.66,5.71,92.61,1.31,123.26c-.36,2.47-.12,5.05-1.25,7.39C.05,87.88,.07,45.09,0,2.31,0,.51,.24,0,2.22,0,95.44,.07,188.65,.06,281.87,.01c1.73,0,2.12,.39,2.12,2.12-.05,93.22-.05,186.43,.01,279.65,0,1.98-.52,2.22-2.31,2.22-43.15-.06-86.3-.05-129.45-.05Z"/>
    <path class="cls-2" d="M.05,153.9c1.21,2.7,1.04,5.65,1.44,8.48,8.19,58.12,52.28,106.23,111.43,118.61,5.13,1.07,10.37,1.57,15.56,2.35,.57,.09,1.35-.31,1.62,.6-42.61,0-85.22-.02-127.83,.05-1.9,0-2.27-.37-2.27-2.27,.07-42.61,.05-85.22,.05-127.83Z"/>
    <path class="cls-2" d="M143.92,159.49c8.87,.32,19.86-.69,30.8,.47,23.37,2.49,41.47,22.6,41.65,46.12,.05,6.32-2.21,11.79-7.07,15.87-15.52,13.01-33.24,21.19-53.41,23.86-26.92,3.56-51.55-2.48-73.91-17.79-4.16-2.85-8.41-5.71-11.38-9.95-4.37-6.25-4.11-13.18-2.74-20.2,4.45-22.64,23.53-38.17,47.14-38.37,8.94-.08,17.89-.01,28.92-.01Z"/>
    <path class="cls-2" d="M94.85,89.46c.67-26.32,21.83-46.88,47.39-46.46,25.3,.42,46.59,20.72,46.29,47.21-.3,26.35-21.88,47.13-47.59,46.49-25.79-.65-46.02-21.26-46.09-47.23Z"/>
  </g>
</svg>